<svg width="25" height="24" viewBox="0 0 25 24" fill="none" xmlns="http://www.w3.org/2000/svg">
<path d="M2.37497 3.75C2.37497 2.50736 3.38233 1.5 4.62497 1.5H18.125C19.3676 1.5 20.375 2.50736 20.375 3.75V4.5C20.375 4.91421 20.0392 5.25 19.625 5.25C19.2108 5.25 18.875 4.91421 18.875 4.5V3.75C18.875 3.33579 18.5392 3 18.125 3H4.62497C4.21076 3 3.87497 3.33579 3.87497 3.75V12C3.87497 12.4142 4.21076 12.75 4.62497 12.75H4.8333C5.24752 12.75 5.5833 13.0858 5.5833 13.5C5.5833 13.9142 5.24752 14.25 4.8333 14.25H4.62497C3.38233 14.25 2.37497 13.2426 2.37497 12V3.75Z" fill="#486900"/>
<path d="M18.5 15C19.1213 15 19.625 14.4963 19.625 13.875C19.625 13.2537 19.1213 12.75 18.5 12.75C17.8786 12.75 17.375 13.2537 17.375 13.875C17.375 14.4963 17.8786 15 18.5 15Z" fill="#486900"/>
<path d="M15.875 13.875C15.875 14.4963 15.3713 15 14.75 15C14.1286 15 13.625 14.4963 13.625 13.875C13.625 13.2537 14.1286 12.75 14.75 12.75C15.3713 12.75 15.875 13.2537 15.875 13.875Z" fill="#486900"/>
<path d="M12.125 13.875C12.125 14.4963 11.6213 15 11 15C10.3786 15 9.87497 14.4963 9.87497 13.875C9.87497 13.2537 10.3786 12.75 11 12.75C11.6213 12.75 12.125 13.2537 12.125 13.875Z" fill="#486900"/>
<path fill-rule="evenodd" clip-rule="evenodd" d="M8.79026 6.74999C8.61159 6.74992 8.3982 6.74984 8.21022 6.7652C7.9924 6.783 7.68041 6.82866 7.35349 6.99524C6.93013 7.21095 6.58592 7.55516 6.3702 7.97852C6.20363 8.30544 6.15797 8.61743 6.14017 8.83525C6.12481 9.02323 6.12489 9.23662 6.12496 9.41529V17.7097C6.12489 17.8884 6.12481 18.1018 6.14017 18.2897C6.15797 18.5076 6.20363 18.8196 6.3702 19.1465C6.58592 19.5698 6.93013 19.914 7.35349 20.1298C7.68041 20.2963 7.9924 20.342 8.21022 20.3598C8.39821 20.3752 8.6116 20.3751 8.79028 20.375L17.5246 20.375C17.9697 20.375 18.0168 20.3801 18.0512 20.3861C18.1078 20.3959 18.1631 20.4122 18.216 20.4347C18.2481 20.4483 18.2904 20.4696 18.6643 20.7112L20.1635 21.68C20.2872 21.76 20.454 21.868 20.6083 21.9488C20.7627 22.0296 21.1398 22.2159 21.6305 22.1816C22.1736 22.1438 22.6735 21.8716 23.0001 21.436C23.2952 21.0425 23.3434 20.6247 23.3593 20.451C23.3752 20.2776 23.3751 20.0789 23.375 19.9316L23.375 9.41531C23.375 9.23663 23.3751 9.02324 23.3598 8.83525C23.342 8.61743 23.2963 8.30544 23.1297 7.97852C22.914 7.55516 22.5698 7.21095 22.1464 6.99524C21.8195 6.82866 21.5075 6.783 21.2897 6.7652C21.1017 6.74984 20.8884 6.74992 20.7097 6.74999H8.79026ZM19.4784 19.4514L20.9493 20.4018C21.2507 20.5966 21.4014 20.694 21.5261 20.6853C21.6347 20.6777 21.7347 20.6233 21.8 20.5361C21.875 20.4362 21.875 20.2567 21.875 19.8979V9.45C21.875 9.02996 21.875 8.81994 21.7932 8.65951C21.7213 8.51838 21.6066 8.40365 21.4655 8.33174C21.305 8.25 21.095 8.25 20.675 8.25H8.82497C8.40493 8.25 8.19491 8.25 8.03448 8.33174C7.89335 8.40365 7.77862 8.51838 7.70671 8.65951C7.62497 8.81994 7.62497 9.02996 7.62497 9.45V17.675C7.62497 18.095 7.62497 18.3051 7.70671 18.4655C7.77862 18.6066 7.89335 18.7213 8.03448 18.7933C8.19491 18.875 8.40493 18.875 8.82497 18.875H17.5246C17.9195 18.875 18.1169 18.875 18.3081 18.9082C18.4779 18.9377 18.6437 18.9867 18.8023 19.054C18.9809 19.1299 19.1468 19.2371 19.4784 19.4514Z" fill="#486900"/>
</svg>
