<svg width="24" height="24" viewBox="0 0 24 24" fill="none" xmlns="http://www.w3.org/2000/svg">
<path fill-rule="evenodd" clip-rule="evenodd" d="M3.28242 5.16687C3.31805 4.5037 3.72472 4.01418 4.14827 3.72508L6.26087 2.28308C7.45485 1.4681 9.08342 1.77534 9.89839 2.96932L11.8464 5.8233C12.7484 7.14478 12.4084 8.94727 11.0869 9.84928C11.0663 9.86335 11.061 9.89147 11.0751 9.91208L13.5833 13.5868C13.5974 13.6074 13.6255 13.6127 13.6461 13.5986C14.9676 12.6966 16.7701 13.0367 17.6721 14.3582L19.4857 17.0152C20.276 18.173 19.9781 19.7521 18.8203 20.5423L16.7501 21.9554C16.2135 22.3217 15.4946 22.4604 14.8248 22.1852C11.7134 20.907 8.78714 17.6419 6.68863 14.311C5.62889 12.6289 4.75634 10.8926 4.15968 9.31783C3.5709 7.76384 3.22193 6.29274 3.28242 5.16687ZM4.99391 4.96399C4.82278 5.0808 4.78325 5.19156 4.78026 5.24734C4.73665 6.05895 4.99735 7.29508 5.56238 8.78636C6.11954 10.2569 6.94496 11.9039 7.95776 13.5114C10.0043 16.7599 12.7214 19.6995 15.3948 20.7977C15.5311 20.8537 15.7214 20.8415 15.9045 20.7165L17.9747 19.3034C18.4482 18.9802 18.57 18.3344 18.2468 17.8609L16.4332 15.2038C15.9982 14.5666 15.129 14.4026 14.4918 14.8376C13.7869 15.3187 12.8255 15.1373 12.3444 14.4324L9.83615 10.7577C9.35505 10.0529 9.53642 9.09148 10.2413 8.61037C10.8785 8.1754 11.0425 7.30619 10.6075 6.66894L8.65949 3.81496C8.31155 3.30522 7.61626 3.17405 7.10651 3.52198L4.99391 4.96399Z" fill="#486900"/>
</svg>
